/* XPM */
static char *e53ebf170ee847a581d9c27b812d17045ecEugXcRl4JeLyj[] = {
/* columns rows colors chars-per-pixel */
"64 64 192 2 ",
"   c #050102",
".  c #0A0303",
"X  c #0D0A07",
"o  c #070308",
"O  c #0B0409",
"+  c #0E0A0A",
"@  c #130706",
"#  c #110907",
"$  c #100709",
"%  c #140B0C",
"&  c #180D0E",
"*  c #1A110F",
"=  c #0E0910",
"-  c #140D12",
";  c #190F16",
":  c #161113",
">  c #1B1214",
",  c #1C151B",
"<  c #1F1A1C",
"1  c #21161B",
"2  c #231A1B",
"3  c #291D1D",
"4  c #1F1A20",
"5  c #241B22",
"6  c #291F27",
"7  c #2C2324",
"8  c #2B2429",
"9  c #262029",
"0  c #312626",
"q  c #332B2C",
"w  c #392F2E",
"e  c #312728",
"r  c #342D32",
"t  c #3C3334",
"y  c #3E363C",
"u  c #3E393A",
"i  c #373236",
"p  c #443C3C",
"a  c #43373A",
"s  c #4B403E",
"d  c #3E3940",
"f  c #473D45",
"g  c #474044",
"h  c #4D4344",
"j  c #4D454B",
"k  c #4B464C",
"l  c #534B4B",
"z  c #5A4E4E",
"x  c #544748",
"c  c #58504E",
"v  c #4E4651",
"b  c #4E4950",
"n  c #534C53",
"m  c #594F56",
"M  c #544E59",
"N  c #5B5355",
"B  c #575259",
"V  c #5B535C",
"C  c #575253",
"Z  c #61575D",
"A  c #635A5C",
"S  c #645758",
"D  c #65605D",
"F  c #5B5461",
"G  c #5D5A63",
"H  c #645B63",
"J  c #695E64",
"K  c #645E6A",
"L  c #6B5F6A",
"P  c #6D6264",
"I  c #66626D",
"U  c #6C636B",
"Y  c #6F696D",
"T  c #676362",
"R  c #726665",
"E  c #746967",
"W  c #71666D",
"Q  c #746A6C",
"!  c #7A6D6E",
"~  c #7B716F",
"^  c #6C6672",
"/  c #6E6B74",
"(  c #6A6674",
")  c #726671",
"_  c #746B73",
"`  c #7A6E74",
"'  c #756E7A",
"]  c #7A6F79",
"[  c #767175",
"{  c #7D7274",
"}  c #75717A",
"|  c #7C727A",
" . c #7E797D",
".. c #817575",
"X. c #837877",
"o. c #82767C",
"O. c #857A7B",
"+. c #897D7E",
"@. c #8B817F",
"#. c #7D7682",
"$. c #7C7883",
"%. c #837681",
"&. c #857A83",
"*. c #8A7D83",
"=. c #867D8A",
"-. c #8B7E89",
";. c #868183",
":. c #8D8284",
">. c #8D828A",
",. c #918485",
"<. c #92858B",
"1. c #95898B",
"2. c #998C8E",
"3. c #908886",
"4. c #898491",
"5. c #948791",
"6. c #958A92",
"7. c #9A8D92",
"8. c #9B8F99",
"9. c #9E9193",
"0. c #9E929A",
"q. c #9E9898",
"w. c #A29495",
"e. c #A3959B",
"r. c #A5999B",
"t. c #AB9B9C",
"y. c #AEA09F",
"u. c #A79BA1",
"i. c #AC9EA2",
"p. c #A497A0",
"a. c #AEA1A1",
"s. c #B3A4A5",
"d. c #B8A5A7",
"f. c #B6A6A8",
"g. c #B6A9AA",
"h. c #BBACAC",
"j. c #B7A8AA",
"k. c #BEAFB1",
"l. c #BEB1B1",
"z. c #BEB9B6",
"x. c #C1AEAE",
"c. c #C1AEB1",
"v. c #C3B3B4",
"b. c #C9B6B5",
"n. c #CAB9B7",
"m. c #C7B6B8",
"M. c #CAB7B9",
"N. c #C6B9BB",
"B. c #CBBBBC",
"V. c #D0BDBE",
"C. c #C5C0BD",
"Z. c #CEC0BE",
"A. c #D3C1BF",
"S. c #CEBFC0",
"D. c #D1BFC2",
"F. c #CEC2C3",
"G. c #CCC1C9",
"H. c #D4C4C5",
"J. c #D5C5C5",
"K. c #D5C5C6",
"L. c #D6C6C7",
"P. c #D5C5C5",
"I. c #D2C2C3",
"U. c #D9C6C6",
"Y. c #D9C6C5",
"T. c #DBC9C7",
"R. c #D7C7C8",
"E. c #D5C5C8",
"W. c #DAC7C8",
"Q. c #D6C9C8",
"!. c #D8C8C9",
"~. c #D9C9CA",
"^. c #DACACB",
"/. c #DBCBCC",
"(. c #DDCDCE",
"). c #DBCACB",
"_. c #D7C8C5",
"`. c #DFCFD0",
"'. c #DBCED4",
"]. c #D7CCD2",
"[. c #DED2D4",
"{. c #E0CECD",
"}. c #E4D0CF",
"|. c #E1D2D3",
" X c #E1D5DA",
".X c #E7D4D8",
"XX c #E6D9DB",
"oX c #E9DADB",
"OX c #E9D7D7",
"+X c #E8DCE0",
"@X c #EFE3E6",
"#X c #F4E8EA",
/* pixels */
"M.I.F.v.m.I.I.N.M.I.H.H.H.I.I.^.Q.I.M.B.I.B.S.D.^.Q.H.H.I.I.I.F.B.I.I.H.I.R.(.M.H.^.v.M.B.B.M.v.h.z.N.B.x.h.g.g.y.y.t.r.a.i.i.i.",
"M.B.N.M.v.m.M.I.M.I.F.B.I.H.I.F.I.H.I.Q.I.m.S.I.H.M.N.H.H.I.M.v.M.I.S.I.I.I.B.v.B.B.v.v.v.v.M.N.N.B.B.m.l.h.h.l.s.g.y.w.e.u.e.8.",
"B.M.B.I.I.v.M.F.B.B.B.B.I.H.H.H./.H.B.I.S.B.^.`.(.I.I.H.Q.F.I.Q.S.B.B.I.R.B.l.B.I.b.h.x.j.v.M.M.z.h.g.g.h.h.h.d.y.y.s.y.e.w.7.<.",
"t.t.f.g.h.h.h.v.v.N.B.H.H.I.H.H.I.I.S.H.R.H.^././.H.I.I.M.B.I.^.[.!.!.H.R.I.B.R./.b.h.v.l.v.N.v.s.s.s.a.s.y.y.w.q.y.r.w.e.7.<.1.",
"r.t.t.t.t.d.h.h.N.B.B.I.S.I.B.F.M.H.^.Q.I.I.^.^.S.M.B.B.M.B.B.B.H.M.M.g.s.v.v.d.x.t.w.y.w.t.r.w.w.w.w.r.w.w.w.9.w.2.,.,.-.-.,.2.",
"y.s.f.d.g.k.m.B.I.H.H.S.B.H.H.B.B.H.H.I.B.I.Q.^.M.N.B.H.F.M.B.H.I.v.k.h.g.v.v.j.s.t.t.s.t.t.w.r.t.t.r.r.y.s.s.s.y.y.w.w.w.w.2.2.",
"9.t.s.h.x.v.B.Q.!.H.H.I.S.I.U.I.B.S.B.H.H.I.F.M.M.M.H.J.B.v.B.H.B.v.v.v.m.x.k.l.h.g.h.b.d.d.t.s.j.s.t.r.t.y.y.t.w.y.t.r.w.w.2.2.",
"x.B.Y.V.M.B.^.(.R.M.I./.B.v.v.S.Q.H.B.F.M.h.v.M.B.F.H.F.B.I.B.v.h.B.v.h.h.g.d.a.h.g.g.x.d.d.t.s.t.s.a.t.9.2.w.w.2.w.w.w.w.w.t.d.",
"I.H././.I.R.`.I.B.R././.H.I.k.B.F.H.B.I.U.F.H.H.B.v.B.^.v.B.B.v.l.I.M.l.l.h.h.h.s.g.d.t.l.m.v.s.g.v.l.h.v.l.s.s.x.n.z.h.l.z.F.[.",
"B.H.m.m.R.^.S.R.(.H.I.H./.S.B.m.H.I.H.H.H.^.H.B.H.B.B.H.m.B.F.M.M.F.S.B.v.h.h.B.s.s.s.s.v.v.N.M.F.B.l.h.Z.I.F._.Z.A.F.Q.XXXX+X#X",
"I.I.S.I./.I.B.R./.I.B.H.I.v.H.M.F.M.|.(.I.(./.^.^.H.S.F.B.F.D.B.D.B.B.H.H.I.B.A.B.I.I.V.M.v.M.B.v.v.M.m.I.N.N.H._.).XX@X#X[.].[.",
"H.S.I./.R.R.^.|.R.^.H.`.B.M.F.H.I.M.I.H.M.B.H.(.H.H.I.B.D.H.S.B.B.B.I.Q.H.I.F.n.v.B.H.M.v.l.v.v.h.N.Z.N.Z.N.H.OX[. XoX+X X'.[.[.",
"F.D.B.m.B.I.B.R.^.^.I.F.I.H.M.F._.S.v.v.B.m.v.N.M.M.N.v.m.v.v.v.v.v.M.B.v.j.f.f.g.g.f.t.t.f.h.s.h.x.v.h.B.B.F.H.S.S.S.S.G.G.G.S.",
"R.I.(.Q.I.^.I.I.^.I.B.v.S.B.v.N.M.F.k.v.B.B.M.v.v.v.h.s.d.s.j.v.v.v.v.v.h.t.t.f.h.h.f.f.t.y.f.h.g.h.j.v.v.j.w.1.5.-.>.5.4.%.%.$.",
"M.v.!.H.B.I.I.F.^.B.Z.M.B.v.v.I.v.v.B.I.I.F.F.B.M.v.v.h.c.h.v.M.B.M.v.B.I.N.v.B.h.M.B.M.v.v.b.I.A.F.M.B.h.f.9.7.0.>.>.-.] ) #.%.",
"Q.H.B.c.V.I.h.M.H.M.v.H.N.h.M.B.B.h.I.(.H.I.M.v.v.h.v.M.B.k.v.c.v.B.S.B.I.B.M.I.V.|.H.I.H..X).^.B.M.l.B.v.N.l.S.a.a.u.p.6.5.5.%.",
"^.T.A.b._.J.x.T.B.b.V.!.U.I.n.B.F.v.Z.N.M.B.H.h.c.V.Y.V.D.M.v.D.V.Y.{.V.Y.{.V.x.D.{.{.D.'.+X.X].M.v.v.v.D.b.c.B.i.i.f.s.r.q.r.6.",
"n.B.Y.T.}.T.B.Y.T.T.D.!.`.v.t.B.I.[._.I.Z.I.v.D.D.b.c.h.c.M.D.H.Y.Y.V.Y.{.A.n.x.V.{..XW.D.c.S.D.M.v.M.b.y.e.e.2.1.r.u.r.a.u.r.e.",
"Y.A.Y.T.V.b.v.b.B.Y.I.I.O.a 2 3 m +.M.(.M.D.I.B.B.d.d.h.x.c.M.!.Y.A.V.V.n.b.n.{.V.W.D.c.c.M.c.j.s.c.s.t.e.w.-.5.w.r.<.;.0.r.6.6.",
"n.V.A.Y.n.x.v.x.B.^.H.+.@ . @ @ @ . x (.H.U.M.M.x.c.b.M.M.M.B.D.V.A.V.V.Y.Y.D.Y.U.V.c.i.c.S.c.d.i.r.p.e.7.0.u.0.5.<.5.>.5.6.6.6.",
"n.T.T.Y.V.V.n.x.B.Z.Z.z     w @.E ! r.V.H.V.!.Y.B.H.B.k.m.A.n.Z.{.{.D.V.H.H.H.Y.{..X.XD.v.d.i.p.p.7.p.p.-.-.8.8.6.-.=.>.6.6.5.>.",
"A.T.Y.n.A.{.{.{.v.}.y.* . 2 q.[..XOXW.Y.B.D.M.M.M.B.I.I.).Z.l.Z.M.V.D.Y.I.B.B.B.D.D.D.p.%.o.%.%.%.%.-.-.7.-.%.-.>.=._ ^ $.| ^ } ",
"T.T.{.Y.A.T.V.V.).[.D   . w Z.C.D.M.b.M.H.D.D.B.B.Z.I.h.3.S p s p z ! 2.j.R.W.M.c.7.%.) ) W ] #.] L ) #.o.%.=.] ' =.=.%.#.' ' #.",
"A.n.T.T.A.Y.V.I.A._.S . . c F.C.v.M.M.D.I.S.v.D.I._.s.z * # & . @ . @ * t %.h.h.e.) m m U ` } ^ ) ] L F K ) ' #.' / ' ^ K ) ' ^ ",
"A.n.A.A.b.b.Z.P.Z.Q.N   . D C.N.V.V.D.Y.S.S.E.E.S.7.q O . X % # . % X X   + D >._ N 5 , 4 v ' } ] %.` I U } &.} | } } } / | ^ | ",
"A.A.n.Z.A.A.Z._.Z.Z.E .   c C.v.b.!./.M.E.k.S.S._ - . & X   # % X   X X X X < Q [ n =   O = 6 K &._ o.) I } _ / } |  .} } | ^ } ",
"{.A.{.{.A.A.A.n.m.Z.3..   7 z.H.D.!.D.D.D.'.S.H 8 % - O * <     X X X   X     b $.} y o o o o d ^ L ` | _ _ &.&.$. .&.| %.{ _ &.",
"T.n.A.T.n.Z.A.n.Z.T.b.7     P _.R.M.m.m.D.N.H - 6 % .   r q.N   X   X [ ;.8 o i _ | | B d = o 6 _ ] } *.} Q o.' } Q _ _ &.}  .6.",
"A.A.C.n.A.A.T._.I.).oXP . # & s.].v.k.S.k.M - , 5 o o O + C u       X T D X   n &.^ _ &.) 6 O ; _ ` ] ] -.-.o.o.o._ W W | ` ] &.",
"A.A.Z.Z.A.A.A.A.I.N.Q.g.& . . z N.S.S.u.f O = - 5 + o         X   X .   o o O V *.%.&.| H 4 O 5 _ &.o.%.-.-.#.] &.-.-.] ` ] ] W ",
"A.Z.A.A.Z.C.Z.Z.A.v.v.Q.z . . . { F.S.N o ; o - ,   o   o o X   X   . O $ O 1 } -.o.o.H f O . , ) -.%.%.-.#.-.%.] -.-.&.] -.<.o.",
"Z.A.C.x.A.A.x.A.Z.Z.Q.Q.b.e . . ; o.h + ; o O o = o o = o       . . . O . % V &.%.] ] a O . $ 5 ' %.%.%.=.&.-.-.%.%.o.-.&.5.5.o.",
"V.V.B.v.b.W.}.D.k.v.S.S. XX.  O   X o o o o o o o o o   o       O . @ . @ N Q [ _ | k - o O O f | -.&.#.%.%.%.%.%.%.` ..%.-.-.-.",
"A.V.B.M.V.W.{.D.v.N.m.l.9.:.q   X o o     X   o o o o o O   o   . . . 3 N X.Q A N r     o   r  .] -.] ] o...%.%.-.-.-.*.o.] -.5.",
"A.A.E.D.M.M.D.D.k.k.7.O.&.O.b X o   o     o o o     o     o o   . . * A +.J u 7 . = o O   6 &.o.] %.] %.o.-.w.-.-.%.%.-.-.-.5.7.",
"Z.M.M.M.D.W.b.e.` W o.{ O.U H :       o           o   o   o     .   * h t #     O o O O y ] >.>.%.] o.-.%.%.-.-.-.-.%.-.5.5.6.-.",
"S.H.H.S.b.a.-.! ..o.o.o.[ { Y :       o                           . O #     . O $ . 6 m %...o.-.] o.t.-.*.-.-.%.*.-.-.-.*.*.<.*.",
"S.F.S.f.,.A J ! o...` |  .9._ +         o                         @ .   X +   o & t ] 5.-.-...-.%.W -.-.-.-.*.-.7.e.e.7.-.*.<.-.",
"g.e.&.} ` W W { { H U W V P b         o                         . .     .   . e F -.....-.p.*.-.%.-.8.8.7.-.w.-.*.*.*.-.2.2.2.<.",
"o.o.o.` _ W W | U Q W W  ./ 8                 X                 .   . + . > j &.%.....-.*.-.....` -.-.-.*.-.t.-.-.-.+.-.5.1.-.*.",
"] >.*._ | ` ^ ` [ T Y [  .P >   o         .       .             . .     - l  .+.o.o.` 7.w.-.-.-.-.-.*.+.+.w.+...+.7.+.*.+.-.t.-.",
"W ' &.| ] U ' ) /  .[ Y  .C .           .   . X O     O     .     X O   h +.o.J ` &.` 8.-.o.-.-.-.+.-.-.+.-.-.-.-.-.+.+.*.-.*.+.",
"] ] o.] &._ _ [ [ Q U T Q r   o     X   . O   .   . .     . .   .   . 7 ..` R +.+...+.*.*.w.-.2.+.+.*.*.-.+...+.t.*...+...+.t.+.",
"_ -.o._ ] *.[ U Y / [ [ [ 8     X     X @ . . & 0 a h a % .     .   . p *.R o.1.-.*...*.*.w.-.*.+.+.*.+.-.-.*.*.+.+.+.-...+.t.-.",
"-._ I ` _ [ }  .T >.;.E U > . O   X . e s w x { E R @.3.q .   .   . & A +.{ 1.+.7.*.+.2.2.*.+.2.t.+.*.-.+.w.t.2.+.w.2.+.*.+.+.t.",
"L W W J U }  ._ Y  .} [ C .   .   # l X.X.{ ..+.X...1.2.l .   . .   e +.:.+.1.2.w.*.2.w.-.w.+.-.w.+.-.d.+.w.2.+.w.w.2.+.+.w.w.+.",
"W ] _ } 6.>.' [ [ Y { ;.h . . . . 3 ..+.! ,.+.O.+.@.@.~ E &   . .   0 X.1.1.1.,.2.2.+.-.-.*.w.+.+.+.-.t.w.-.+.2.+.w.+.+.w.w.+.+.",
"8.%.H ^ [ &.' O.} ;.;.Q 7   . X . N ..+.+.E E X.@.X.....:.* . . . . 1 X.r.+.+.,.*.+.+.w.2.+.+.t.-.+.*.+.+.+.*.+.2.+.+.+...+.+.+.",
"W _ ` L o.>.W ) o.' Y [ :       & R @...........X.+.+.@.+.2 . . @ @ & ..*.+.+.+.+...+.w.+.+.@.w.*.w.+...@.w.2.*.2.,.+...X.1.w.1.",
"o.| ` U W -.-._ ) W Q [ < o X   0 ..@...R +...+.+.@.@.@.X.q   O . @ & ..t.....+.*...+.+.2.+.,.2.*.+...+.2.,.+.2.+.2.9.+.+...+.X.",
":.o.W W W W W Z W o.>.| :   X   p X.+.+.X.+.R 2.t.....+.;.S @ . . . * ..+...+.w.+.w.-.+.+...X.@.w.2.+.+.2.@.,.+.+.1.2.+.1.,.+.+.",
"A W H U W U L ` _ | ;.N X X     z 2.....+.....@.@.@...+.t.O.& @ . . 3 +.+.+.w.+.w.+.....+.2.3.@.2.w.w.d.t.+.*.+.,.1.1.,.2.2.*.,.",
"W o._ ` Q *.U H P Y &.u       < O.....*...X.9.E X.@.@.X...@.s @ . . 1 X.t.+.+.+.+...+.2.w.@.X.+...+.+.@.w.w.w.+.o.O.:.1.1.2.<.2.",
"<.X.[ +.[ <.{ H *.Q P <   .   s O.E ` +.@.@.X.~ R X.@.@.@.w.D @ @ . 1 ` +.+.@.w.-.*.w.+.w.9.@.@.@.+.+.w.2.w.2.2.9.,.,.,.O.*.O.-.",
"6.@.X.+.Q Q O.*.&.o.J #     : Q o.+.,.@.,.2.,.,.@.@.@.w.@.@.X.0 . . 1 ..+.+.+.....w.+.@.@.9.@.X.+.+.w.@...+.+.+.r.,.O.*.o.,.O.,.",
"Q { [ X.,.O.,.;.o.*.A   X   : Y ` ..O.@.r.+.~ O.@.@.@.X.X.@.X.s . @ * R +.+.+.+.+.+.+.w.+.@.1.X.@.+.w.@...@.w.2.7.,.o.o.+.1.| ,.",
"..[ { +.7...:.:.*.;._ 2     , Y 0.*.W ` o.O.,.[ @.;.3.X.;.;.3.Y @ . % S :.:.+.,.2.2.+.+.,.9.O.,.,.+.:.1.t.,.*.+.,.<.&.{ *.,.6.*.",
"1.3.:.O.P Q ,...*.3.X.t , : q U ] ` A L { { O.O.3.@.{  . .3.;.[ , . % & 1 x 1.*.-.o.2.+...+.:.2.1.1.:.+.O.3.+.*.<.>.+.*.+.:.1.:.",
"3...{ ,.` +.w.:.1.<.[ j d u g b m H L _ _ _ o.[ Q { O. .[ { } 4.u # o   O O H *...7.2.,.9.+.<.,.o.:.,.` *.o.7.1.+.:.;.7.<.,.&.o.",
"@.O.Q O.:.2.2.1.7.<.<.U n k b b j v H J m V W P C U Y T } U G $.B > - - - > ` <.2.1.-.) ..+.7.8.Q *.Q o.;.:.t.2.&.1.*.:.<.:...O.",
"*.,.O.o.*.O...,.9.*.<.` H H n v v V v v B n n V b B n b I M M M n k b n H L ,.] %.-.-.) ` ` o.%.*.8.1.7.6.*.<.O.O.*...Q X.o.O.! ",
"3.,.+.O.+.` ` @.7.%.>.] U L K L H F M F K K B B B G V K M b F M G G F B ^ I I _ ) 5.` ) %.) L o.%.` <.>.7...{ -.O.{ O.~ ` X.,.Q ",
"7.7.:.! ..;.,.:.e.&.| _ %.=.=.#.( K K I K I I U I ( I / I I I I I G ( T G K ) } %.L ) ) ) -.` ` p.-.o.-.-.-.` :.>.:.:...~ :.w.:.",
"+.;.O.+.2.1.*.<.o.&.#.| %.%.4.=.G _ } #. .^ I $.I ' #.I $.( I 4.I / $./ } U ^ -.-.] L ) o.o.) _ ` <.-.o.*.o.<.{ ` 7.+...O.,.:.1."
};
