/* XPM */
static char *d17c401ad734445a9265f39a2cf203a30Z7OoT0niV3oMxZo[] = {
/* columns rows colors chars-per-pixel */
"64 64 243 2 ",
"   c #0E0A0B",
".  c #1B0C0D",
"X  c #15090A",
"o  c #1C110D",
"O  c #150D14",
"+  c #1A0E14",
"@  c #180E18",
"#  c #151115",
"$  c #1B1215",
"%  c #161118",
"&  c #1B131A",
"*  c #1E1B1A",
"=  c #0F0E14",
"-  c #230404",
";  c #220C0E",
":  c #2A0907",
">  c #3A0402",
",  c #25150B",
"<  c #34140A",
"1  c #220C12",
"2  c #2C0B16",
"3  c #221413",
"4  c #2B1C14",
"5  c #22161B",
"6  c #231A1B",
"7  c #2B1D1B",
"8  c #281816",
"9  c #341B1D",
"0  c #391917",
"q  c #360D13",
"w  c #2A231C",
"e  c #36251A",
"r  c #1E1922",
"t  c #2A1B22",
"y  c #341B21",
"u  c #361B24",
"i  c #2A2625",
"p  c #332324",
"a  c #3B2B24",
"s  c #392729",
"d  c #393332",
"f  c #420000",
"g  c #4B0100",
"h  c #570701",
"j  c #411A1A",
"k  c #581606",
"l  c #621205",
"z  c #630F09",
"x  c #44241B",
"c  c #482A26",
"v  c #45342B",
"b  c #56362A",
"n  c #4C3B33",
"m  c #493838",
"M  c #583A36",
"N  c #522B29",
"B  c #663B2F",
"V  c #7B2816",
"C  c #4A433A",
"Z  c #574338",
"A  c #64483C",
"S  c #794B3A",
"D  c #3B3B42",
"F  c #483A43",
"G  c #533D40",
"H  c #603C40",
"J  c #494247",
"K  c #594A46",
"L  c #554A52",
"P  c #5B5655",
"I  c #5B5447",
"U  c #674B46",
"Y  c #754E48",
"T  c #6B554B",
"R  c #6D5B4D",
"E  c #655347",
"W  c #75574B",
"Q  c #6C5C52",
"!  c #675A58",
"~  c #745D54",
"^  c #7A5955",
"/  c #69615A",
"(  c #746354",
")  c #7B6255",
"_  c #7B665A",
"`  c #7C695B",
"'  c #75655A",
"]  c #77614F",
"[  c #6B6366",
"{  c #7A6965",
"}  c #7D7163",
"|  c #756B72",
" . c #7B7477",
".. c #6A6974",
"X. c #5F5A66",
"o. c #9C3B2D",
"O. c #9E3520",
"+. c #9D3C31",
"@. c #883C30",
"#. c #A33C2A",
"$. c #A53C34",
"%. c #A44133",
"&. c #AA442F",
"*. c #934530",
"=. c #835C56",
"-. c #8C5A4A",
";. c #A34D45",
":. c #83655B",
">. c #846C5D",
",. c #8B695B",
"<. c #966A59",
"1. c #8D6C57",
"2. c #A36F5E",
"3. c #846D63",
"4. c #8B6D63",
"5. c #886C68",
"6. c #966C66",
"7. c #8B7464",
"8. c #8C746C",
"9. c #8D7B6B",
"0. c #867467",
"q. c #93746C",
"w. c #927D6C",
"e. c #977868",
"r. c #8C7B73",
"t. c #8A7775",
"y. c #937673",
"u. c #937B73",
"i. c #9B7B74",
"p. c #9C7D7A",
"a. c #957977",
"s. c #806C75",
"d. c #A57A68",
"f. c #AA756C",
"g. c #835F63",
"h. c #CC7D6A",
"j. c #E37E6C",
"k. c #8E8269",
"l. c #95816D",
"z. c #9A856D",
"x. c #8C8579",
"c. c #958273",
"v. c #9A8474",
"b. c #9C8975",
"n. c #9C837B",
"m. c #9D8B7C",
"M. c #94847B",
"N. c #96927D",
"B. c #A5816F",
"V. c #A38B75",
"C. c #A3847B",
"Z. c #A38C7C",
"A. c #A78876",
"S. c #B28B7A",
"D. c #A9937C",
"F. c #B4937E",
"G. c #D88977",
"H. c #D28472",
"J. c #E4826D",
"K. c #E8856E",
"L. c #E58776",
"P. c #787987",
"I. c #827D88",
"U. c #967D80",
"Y. c #7C8089",
"T. c #898689",
"R. c #9A8A86",
"E. c #999189",
"W. c #8B8A93",
"Q. c #968D94",
"!. c #989399",
"~. c #A38E82",
"^. c #A78D87",
"/. c #B28E86",
"(. c #A59284",
"). c #AA9383",
"_. c #A5948A",
"`. c #AC958B",
"'. c #AB9A8D",
"]. c #AA9986",
"[. c #B39583",
"{. c #B39A85",
"}. c #BB9B86",
"|. c #B49A8B",
" X c #BB9C8B",
".X c #B69687",
"XX c #AC9B94",
"oX c #AC9D9B",
"OX c #A69795",
"+X c #B29D94",
"@X c #B69D96",
"#X c #BDA28C",
"$X c #BAA18B",
"%X c #BCA492",
"&X c #B5A39C",
"*X c #BAA699",
"=X c #AFA09B",
"-X c #9C99A2",
";X c #A79DA3",
":X c #AAA5A8",
">X c #B5A3A3",
",X c #B9A6A4",
"<X c #BCABA4",
"1X c #B4ABAA",
"2X c #BCABAB",
"3X c #B6A8A7",
"4X c #BBB0AB",
"5X c #BCAEB2",
"6X c #BCB3B3",
"7X c #DA8D85",
"8X c #C19E8B",
"9X c #DB9283",
"0X c #C88D88",
"qX c #E49283",
"wX c #C3A48D",
"eX c #C3A88C",
"rX c #C4A691",
"tX c #C5AA94",
"yX c #CAAB94",
"uX c #C5AC9B",
"iX c #CCB19B",
"pX c #D1B29B",
"aX c #D0AD9A",
"sX c #C2AEAC",
"dX c #C2ADA3",
"fX c #C4B3AD",
"gX c #CAB6A8",
"hX c #D2BAA7",
"jX c #C3B4B4",
"kX c #CBBBB4",
"lX c #C5BBBB",
"zX c #CABDBC",
"xX c #C8B6B7",
"cX c #D1BCB7",
"vX c #C4AFB4",
"bX c #CCC1BD",
"nX c #D2C3BD",
"mX c #CABEC1",
"MX c #C7BCC0",
"NX c #CCC2C2",
"BX c #CFC4C8",
"VX c #D1C6C7",
"CX c #E3D0C2",
/* pixels */
"#.h < 8 e 7 w w y 7 7 w p 9 7 8 9 y y 9 9 y 9 u u 9 u 9 9 9 9 9 u 0 9 9 9 9 9 9 y 9 u u 9 9 y 9 u y 9 y 9 9 y 9 y u u 9 y q j N ",
"#.h < ; . o , . + . X o 2 , ; . + , 1 ; 1 . 1 1 ; ; 1 ; 1 ; 2 ; ; ; 1 1 ; ; ; ; ; . ; ; . ; ; ; 2 1 1 . 1 . + 1 1 1 1 . 1 : > j ",
"#.h j . 8 3 o o $ + X . 1 1 . X . X + O + . + . + + + 1 + . + . . X $ $ . . + . . X $ $ . . $ $ 1 + + + o . + $ + + + X + ; - q ",
"#.h < , o o $ $ $ $ o $ & 3 @   O # % # % $ # # $ $ $ $ @ $ @ $ & O O $ # & & # $ % $ & $ $ & $ + @ O O # # # # + @ @ O + 1 : 9 ",
"&.;.M . X 8 6 $ + + # X @ & @ O = @ = % = = # O $ % O % O O O % & = O O % % & # # O = % % % % O O $ = # # # # % % = = = $ X ; 9 ",
"&.G..X| 7 X o 6 $ $ # # & r % = = @ % % % % % % & & % % % % % % & % & % # % & % % % % % % % % O $ % % # # % * % % % % % $ $ , 9 ",
"&.%.Z.=Xr.m o X $ $ # X @ % % = O = @ @ O % $ % % % & & % & @ % % @ & & O O % % @ @ & & % % $ @ O + @ # = % % % % % % O @ + + 9 ",
"&.@.,.a.R._.{ s . $ #   @ r r % O O O O O O @ @ O @ @ & & & @ @ % O @ @ @ O @ O @ O t & @ O @ @ @ @ @ $ % % % % % % @ O + 1 : 9 ",
"#.V 6.8.8._.OX^.U s 3 . O & r % # o # $ + X & $ @ $ & # # # * # @ @ @ + % O O + @ 5 & + # + $ & + @ O # @ @ @ @ @ @ % O @ 1 : 9 ",
"#.V =.y.8.y.R.'.,X_.~ s X 5 i % *   # # $ O O # + $ # o * * * * $ % $ $ * * $   & $ $ $ $ # X O @ & & # O @ + @ O = @ @ . . 2 j ",
"O.l N 4.y.q.y.n.^.@XsXR.L s i O   # * * $ * * # & * =   # o # * o # # # = # % r * % $ # o # & # + @ # = # & & & r & @ O 3 y N T ",
"O.l b { u.i.e.C.U.~.@XsXsXE.[ J * # i i 6 i i * * w * * i * # * #     O % * r i i d i * # # #   @ + # # # O X X O 1 s m P { p./.",
"#.h N U 5.y.y.p.p.R.).&XsXxXjX1X[ D J P P P I C P / P P P D i i i * 6 d P / P P P [ P D i # # & t @ O %     + 5 p L t.OX@X@X^.f.",
"#.f < a ~ y.q.q.p.i.n.n.^.>X6XlX6XE.OX1X:X:X:X-X1X6X6X6X1X:X!.=X!.T.T.;X6X6XlXlX6X1X:XQ./ d t p d t 5 O   t L { Q.;X3X+X^.~.6.6.",
"#.f > s U 5.q.i.p.i.p.n.^._.:X5X6XbXlXbXlXlXNXlXNXVXNXlXNXNXNXNXVXNXlXmXBXMXMXNXBXNXBXVX6XQ. . .s.[ ! L L { ^.vX,X,XoXR.y.f.6.6.",
"o.g : p v T 6.q.i.p.p.i.R.OX&X3X4XbXlX6XbXbXlXNXVXVXVXNXNXbXNXbXNXNXNXMXNXNXMXNXNXMXMXNXNXMXzXmXxXvXjX4X,XsXvX,X@X^.p.y.y.y.2.6.",
"o.f - 5 9 a ~ 8.y.i.V.~.^.|.<X2XfX4XfXkXlXlXlXbXnXnXbXbXbXNXVXNXNXBXBXmXmXmXmXmXbXzXzXzXzXzXmXzXcXcXcXvXsX@X@X.XU.p.y.y.p.n.i.6.",
"+.f - $ 3 7 T y.u.i.v.A./. XuX<XdX4X4XfXkXkXkXbXnXbXbXbXbXbXbXbXBXBXBXNXNXmXmXMXlXlXlXlXxXxXzXcXcXxXgXdX@X^.U.f.y.a.a.t.a.p.p.i.",
"+.f - . 5 m ~ 5.y.u.i.Z.|.@XuX<X<XdXfXkXgXbXbXbXnXbXgXbXbXbXbXnXbXNXmXMXlXlXMXMXlXjXxXxXvXvXjXsXsXsX@X@X~.i.6.6.6.a.p.a.i.p.i.y.",
"+.f ; + 5 v G K 8.e.e.C.`.@X*X*X*XdXgXgXgXgXkXnXnXbXgXbXbXbXbXnXzXlXlXlXlX6X5XvXlX6XjXjX2X2X2X>X@X|.^.p.y.5.5.5.6.y.p.a.p.p.y.<.",
"+.> : @ 5 8 8 p ~ t.u.D. X@X%X*X*X*XuXgXgXgXbXnXnXbXiXnXbXbXkXkXkXxXjX6XvX5X5X5XjX5X2X2X4XsX*X+X^.^.Z.c.8.,.=.=.5.5.y.a.U.^.p.6.",
"+.> - X t & 8 p U t.Z.|.%X X%X*X%X*X*XgXgXhXhXhXpXbXbXiXhXgXgXfXfX4X2X4X5X5X2X2X5X2X2X2X<X<X<XXX/.^.C.c.8.4.4.6.6.y.t.y.a.U.p.y.",
"$.f X X $ 6 6 7 U a.+X XrX@X X%X%X%X*XuXiXgXhXhXnXhXbXgXhXgXgXdX<X,X<X2X3X2X3X3X5X2X2X,X<X<X*XXX.X`.Z.v.i.e.q.i.y.U.U.s.y.y.6.6.",
"o.f - O & # 6 s T R.@X X@X8X%X%X%X#X%XtXiXiXiXhXpXpXpXiXgXiXiXgXdX<X,X2X5X5X3X3X3X1X,X>X&X&X&X$X`./.`.D.Z.v.e.i.y.y.y.U.y.s.g.^ ",
"+.f - O $ $ 7 d ' ^.@X$X X X@X`.#X{.$XeXyXaXpXpXhXpXiXiXuXuXuXuX*X&X,XsX2X2X2X2XvX,X3X>X@X&X|.'.|.`.).(.Z.v.u.q.y.g.t.U.R.t.Y H ",
"+.f -   O $ i K t.`.%X X.X|.8X%X$X$X#XtXeXyXyXpXpXiXyXtXtXeX%X%XdX*X<X*X,X>XsX,X,X>X>X,X&X&X=X|.).Z.(.Z.m.C.p.y.U.y.t.s.U.U.U s ",
"o.f X X . o d Q R.'.$X|.|.|.|.$X{.{.$X#XeXyXaXyXaXyXtXeX X{.[.).|.&X&X*X,X,X,X>X2X2X2X<X&X@XXX_.`.).(.(.m.~.n.y.a.U.U.s.Q.t.H y ",
"o.f X X $ 3 v { ).|.].Z.).+X$X%X#X$X{.#XwXyXpXaXeXeXwXwX#X{.{.[.`.+X`.`.@X&X,X,X<X2X<X<X<X&X&X+X+X_._.(.Z.R.n.a.y.t.U.U.^.{ u q ",
"$.f - X $ 8 Z u.^.).V.>.W 7.b.].{.$X{.wXrXtXyXyXeXeXeX8X8X}.{.{.].@X=X$XXXOX@X>X<X<X2X2X2X<X<X&X+XOX_._.E.].(.m.x.s.t.E.U.K 2 0 ",
"+.f -   . 4 E m.).[.V.W x e v A 7.).#X#XwXwXyXyXyXyXyXwX#X}.{.{.).v.w.w.p._._.`.&X*X<XsXfXsX<X>X>X@X=X=XXXXXXXXXa.t.R.E.| p ; 9 ",
"o.> - X ; v ) (.|.rX|.e.b - . , b V. X XwXwXrXyX8XeXrXrXwX{.v.7._ ) ` Z e Z ' a._.=X<X4XsXjXjXsX2X<X<X*X&X<X<X>XE.R.oX!.I X X 0 ",
"+.> - 1 e K l.'. XrXwX$X1.x : X e V.$X|.rXrXyXrXeXyXyX8XA.1.A x < 0 b 0 , Z ` ~.=XuXfXfXsXsXfXfX4X4X4X4X<X4XfX2X2X;X4X:XI o ; 0 ",
"o.> : 3 e E b.F.eXeXyXyX8XB.] Z =.C. X.X X X8XyXwXwXwXD.1.b < < : : - < Z w.#XuXgXgX4XiX4X<X<X3X3X3X1X1X1X4X4XjX5X1X:X:X..O . 0 ",
"+.f : o a R b.].#X$XeXyXpXaXeX{.[.@X@X/..X X}.}.G.wXF.B.1.S Z b x b S 7.D.eXuX*X*XuX*X<X<X<X3X>X3X3X1X4X4X4X4X6X5X:X:X:X .i : 4 ",
"o.f - , v ` Z.D.tXtXeXyXyXyXyXeX|..X.X.X X8X8X8X$X{.F.F.D.D.V.V.B.B.F.%XuXiXtX*X*X*X*X*X*X*X>X>X=X>X>X1X<X1X2X3X5X:X:X:XI.d 8 0 ",
"%.f : 8 C >.Z.(.{.{.8XeXrXrXeX$X.X/./..X8X}.}.}.F.$XwX#XeXeX%XeXyXeXtXiXtXeX%X*X*X*X*X*X=X=X=X=X>X:X&X&X3X2X3X:X1X:X:X:XT.m 8 9 ",
"o.f : 3 Z 0.m.Z.'.{.#X#XwXwXF.F.[.S.B.S.F.F.G.}.}.8XwXwXeX#XeX%XtXeXyXyXtXeX*X%X*X&X+XXXXX+XXXoX>X=X&X=X3X*X3X>X:X:X:X-XR.F 8 u ",
"o.f : 3 m 5.M.c.Z.D.{.$XeXeXF.D.d.d.B.f.B.A.F.#XwXwXwXyXiXiXiXiXiXtXiX%X%X%XtX%X$X].]._._.OX`.'.'.XXXX'.XX=X&X>X;X:X:X-XW.G 2 u ",
"+.g : 3 C t.M.c.n.Z.D.F.F.F.D.<.<.d.B.2.<.<.d.S.8XwXrXrXiX#XeX#XtX%XyXtXeX%X%X$X].(.R.~._.`._.OX_.XX`._.'.XX=XoX;X;X;X-XW.L 9 y ",
"o.g : 3 C t.u.u.8.l.z.D.F.F.D.z.-.2.2.<.-.-.1.e.S.8XyXwXeX%XeX%XeX%X%X$X$XD.].D.).Z.m.~._._._._._._._.(.E._._.OX;X-X-X-XQ.P s s ",
"%.f - 8 J t.M.8.0.5.e.z.A.F.F.V.-.-.-.S S S 1.d.}.8XrXtXwX%X#X#X#X$X$XF.{.D.Z.b.b.c.c.m.m.E.).'.~.).D.E.Z.R.R.OX-X-X-X-XI.X.u u ",
"o.h < 7 m 5.M.r.{ ` 7.l.i.D.[.[.B.-.S -.<.d.S.8XrXtXtXrX$X$X{.F.D.D.D.b.V.z.b.l.w.c.c.M.m.R.R.).^.(.(.).Z.R.~.^.-XU.!.!.I.L t u ",
"o.g : 7 m t.T.3.{ 3.7.e.z.A.F.{.B.<.-.-.d.S.}.8XwXwX#X}.D.$X$XD.D.D.V.b.l.7.7.3.0.9.c.b.m.m.m.(.^.~.(.(.(.(.^.Q.U.U.-X-XP.L u u ",
"o.h 0 p m { r.{ 3.} >.7.e.i.c.B.B.2.-.1.6.d.S.}.|.{.{.).D.D.D.D.D.Z.V.w.9.9.9.w.9.l.M.m.m.~.(.).^.)._.)._.'.XXOX;X-X-XI.I.L u u ",
"$.h 9 s m ' } { ' { _ >.4.4.5.y.6.=.=.=.6.6.e.B.V.A.D.Z.Z.Z.Z.Z.Z.C.v.8.7.w.c.c.b.M.m.m.Z.(.E.D.`.`._.].'.'.XXoX;X-X-X!.I.X.u u ",
"%.h 0 i m / } { { _ _ _ :.5.5.5.=.-.Y Y =.,.e.e.z.z.z.V.Z.m.Z.m.v.v.c.l.9.w.w.9.M.b.M.N.Z.Z.Z.(._.).(.(._.'.XXoX;X:X-X!.!...s u ",
"o.h x p v ! } } 0.{ ) ~ ^ ^ ^ H M B B b B Y 1.e.e.e.w.w.l.w.9.r.u.q.0.>.0.8.c.v.l.x.b.m.Z.Z.E.).(.(.(._._.XXoXoX;X;X;X-XQ.| F u ",
"%.l c s m / 0.} 0.} 3.) T U H M j j 0 x x e b A ] ] :.>.3.0.0.9.q.9.3.` ` 0.0.0.c.b.m.Z.Z.N.Z.Z.~._._.'.XX|.oX;X;X:X;X!.I.P.H u ",
"#.l x s n ' r.} r.9.7.` ( U G m u c j 0 x j j N b B T W ( ) ` ' ` ` ( ( R ] ` 7.k.l.c.b.b.m.Z.Z.(.^.(.'.'.'.=X=X;X-X-X-XW. .F p ",
"&.l 0 4 v ` k.9.c.w.9.7.>.T K G c M M U U A B b c c b Z E R R R I I E E R ] ` >.>.>.9.w.u.n.C.~.^.(.E.]._._.'.OXOX!.-X!.W. .F s ",
"*.k < 4 J 0.c.r.c.k.k.k.0.' T L Z U Y ^ =.=.Y Y b N x b M A U I K U R ] ` 1.1.7.7.e.e.w.z.p.C.C.^.).).(.(._.E.OXE.Q.!.W.I.| F s ",
"*.k 4 w K 0.x.9.c.k.k.k.8.` ~ T ~ =.) =.=.=.=.=.^ Y Y U T T E T T W ] ` 1.k.k.z.V.B.V.A.A.B.C.C.).(.D.E.(.E.E.!.!.!.!.Y.I.| F s ",
"%.k 2 t K { t.x.r.r.k.k.8.:.) ) ` 1.7.7.4.,.1.1.1.,.:.3.>.` ' ` _ _ ` >.7.z.z.V.V.V.V.D.A.V.V.V.Z.m.N.N.N.N.N.E.W.-X!.P.I.[ s u ",
"#.l q y m ! t.M.k.c.k.l.7.>.) ) ` >.7.>.7.>.1.7.,.>.4.0.0.} ' ` ` ` ` 7.7.l.z.V.z.V.V.D.Z.V.V.b.m.b.b.M.N.N.E.W.W.W.Y.P.P.L u 2 ",
"$.z j p c J | t.t.r.9.w.e.>._ ) >.3.>.>.:.:.) :.:.3.3.5.3.{ ' ' ( ( ) >.7.w.l.k.b.b.V.V.Z.V.m.m.v.c.x.x.x.x.T.W.W.W.P.P.P.F t 2 ",
"#.z 0 t y m 3.r.8.r.9.9.7.3.) ] ( ) ` ) :.:.) ) ~ ^ { ^ ~ ! ! ! T ] ( >.9.l.z.z.z.k.z.b.n.v.c.b.a.u.r.x.x.Y.T.T.W.P.P.X.X.D 5 u ",
"#.k < 8 w v / 9.5.8.q.e.4.:.( ( R ( ( ( ( R ( ` ) ~ ~ ( ! I Z I E ( 0.k.b.b.N.b.b.z.k.z.k.z.k.z.c.c.x.x.x.x.x.I.P.P.P...X.J s u ",
"$.l 0 3 o w C 0.5.8.7.9.4.5.} } ( / R R R E S R ~ T I Z K Z Z K / ` k.z.c.b.b.b.V.z.b.N.b.b.b.b.c.x.k.x.x.x.T.Q.W.P.P.P.P.| L m ",
"$.z 0 @ o w d I [ / ! E E E I I Z Z Z n C v Z Z n n v v v a a d n Z A A A A E E R E A E E A R A T T ! R / / [ [ | ....P.| X.K M ",
"$.h 9 i w d i d d i w w w w w , , 4 w e e e e e e 9 e 7 7 7 4 4 , , 4 4 4 4 4 e e e a a a v v C v m n C C C C J F F F D i t 3 s ",
"$.f 2 t u m u t i w w * 3 3 , o 3 8 w p e w w w 4 4 , o 3 3 o 3 4 4 4 w 4 w w e e a a a v d d v m m v C C C n m F F F D d t $ y ",
"+.q u d F Y { 5.0.9.k.x.Z./.S.F.`.`./.^.^.C.B.i.6.4.,.:.>.3.>.:.] W R S ] S R S Y Y A Y A S A A A M Z Z Z Z M M F v m c p 8 : < ",
"B B s.^.0X7X7XqX9X7X7XG.7XqXG.9X9X9X9X9XqXqXG.G.qXqXG.G.G.G.G.G.L.9XG.G.G.H.G.H.G.G.H.H.H.H.H.H.H.H.h.H.f.h.h.j.f.f.2.<.-.-.@.@.",
"9XpXCXsX7X7XL.j.L.G.j.G.L.H.J.J.j.j.j.H.j.j.J.J.J.J.J.K.J.J.H.J.K.K.J.J.J.K.J.K.K.J.J.K.K.J.J.L.G.J.J.H.L.K.L.qXL.j.L.G.L.L.L.L."
};
