/* XPM */
static char *_642_0d05e72bd01c4295870182a9e204dbcfe9239a6a3f67504a5440ff7537f4a4d7[] = {
/* columns rows colors chars-per-pixel */
"64 64 18 1 ",
"  c black",
". c #27252D",
"X c #312F36",
"o c #520808",
"O c #42310F",
"+ c #081152",
"@ c gray25",
"# c #5B5B5C",
"$ c #6D4242",
"% c gray42",
"& c #A50000",
"* c #AE3C3C",
"= c #0C1A87",
"- c #3C49AE",
"; c #A7A7A7",
": c #DDDDDD",
"> c gray94",
", c None",
/* pixels */
",,,,,,,,,,,,,,,,,,,,,,,,,,,,,,,,,,,,,,,,,,,,,,,,,,,,,,,,,,,,,,,,",
",,,,,,,,,,,,,,,,,,,,,,,,,,,,,,,,,,,,,,,,,,,,,,,,,,,,,,,,,,,,,,,,",
",,,,,,,,,,,,,,,,,,,,,,,,,,,,,,,,,,,,,,,,,,,,,,,,,,,,,,,,,,,,,,,,",
",,,,,,,,,,,,,,,,,,,,,,,,,,,,,,,,,,,,,,,,,,,,,,,,,,,,,,,,,,,,,,,,",
",,,,,,,,,,,,,,,,,,,,,,,,,,,,,,,,,,,,,,,,,,,,,,,,,,,,,,,,,,,,,,,,",
",,,,,,,,,,,,,,,,,,,,,,,,,,,,,,,,,,,,,,,,,,,,,,,,,,,,,,,,,,,,,,,,",
",,,,,,,,,,,,,,,,,,,,,,,,,,,,,,,,,,,,,,,,,,,,,,,,,,,,,,,,,,,,,,,,",
",,,,,,,,,,,,,,,,,,,,,,,,,,,,,,,,,,,,,,,,,,,,,,,,,,,,,,,,,,,,,,,,",
",,,,,,,,,,,,,,,,,,,,,,,,,,,,,,,,,,,,,,,,,,,,,,,,,,,,,,,,,,,,,,,,",
",,,,,,,,,,,,,,,,,,,,,,,,,,,,,,,,,,,,,,,,##,,,,,,,,##,,,,,,,,,,,,",
",,,,,,,,,,,,,,,,,,,,,,,,,,,,,,,,,,,,,,,#@@#,,,,,,@@@#,,,,,,,,,,,",
",,,,,,,,,,,,,,,,,,,,,,,,,,,,,,,,,,,,,,,@@X@#,,,,,@XX@,,,,,,,,,,,",
",,,,,,,,,,,,,,,,,,,,,,,,,,,,,,,,,,,,,,,@XXX@,,,,@XXX@,,,,,,,,,,,",
",,,,,,,,,,,,,,,,,,,,,,,,,,,,,,,,,,,,,,,@X$X@@,,,XXXX@,,,,,,,,,,,",
",,,,,,,,,,,,,,,,,,,,,,,,,,,,,,,,,,,,,,,@X$$X@,,XX.XX@,,,,,,,,,,,",
",,,,,,,,,,,,,,,,,,,,,,,,,,,,,,,,,,,,,,,@X$$XX@,X..XX@,,,,,,,,,,,",
",,,,,,,,,,,,,,,,,,,,,,,,,,,,,,,,,,,,,,,@X$$$.X@######,,,,,,,,,,,",
",,,,,,,,,,,,,,,,,,,,,,,,,,,,,,,,,,,,,,,@X$$.X@@@@@#####,,,,,,,,,",
",,,,,,,,,,,,,,,,,,,,,,,,,,,,,,,,,,,,,,,,@X..@@@@@@@@#@@@,,,,,,,,",
",,,,,,,,,,,,,,,,,,,,,,,,,,,,,,,,,,,,,,,,@@.@@@@@@..@@@..@,,,,,,,",
",,,,,,,,,,,,,,,,,,,,,,,,,,,,,,,,,,,,,,,,,.@@XX@.....@....,,,,,,,",
",,,,,,,,,,,,,,,,,,,,,,,,,,,,,,,,,,,,,,,,,@@X...@@ %.@. %@,,,,,,,",
",,,,,,,,,,,,,,,,,,,,,,,,,,,,,,,,,,,,,,,,,@...@@@O  .@.  O,,,,,,,",
",,,,,,,,,,,,,,,,,,,,,,,,,,,,,,,,,,,,,,,,,X@@@@@@@OO..@OO@,,,,,,,",
",,,,,,,,,,,,,,,,,,,,,,,,,,,,,,,,,,,,,,,@@X@@XX@@@@@@    @,,,,,,,",
",,,,,,,,,,,,,,,,,,,,,,,,,,,,,,,,,,,,,,#@@.@X..X@@XX%%  %@@,,,,,,",
",,,,,,,,,,,,,,,,,,,,,,,,,,,,,,,,,,,*#@X@X.@...@X.@@@%%%%%@@,,,,,",
",,,,,,,,,,,,,,,,,,,,,,,,,,,,,,,,,**#@@.#X.X@.@X.@@@@%%%%%@@,,,,,",
",,,,,,,,,,,,,XXX,,#------>>>>>>****X#@.X@X.X@X.@@@@@%...%@@,,,,,",
",,,,,,,,,,,,XXX@##------>>>>>>****&X@#@.XX..X.@@@@@@.%%%.@@,,,,,",
",,,,,,,,,,,,XX@##------>>>>>>***&&X.X@@@.XX...@@@@@.%%%%%.@,,,,,",
",,,,,,,,,,,,X@###--====::::::&&&&&X@.X#@@.@X..@@@@@.%%%%%.@,,,,,",
",,,,,,,,,,,,@##@-=====::::::&&&&&&@@@.X@@@X@X.@@@@.%%%%%..@,,,,,",
",,,,,,,,,,,@#@@@======::::::&&&&&X@@@@.X#@@X.X.@@.....,..@,,,,,,",
",,,,,,,,,,,@@@@=======::::::&&&&&X@@@@@@@@@@X.X......,,,,,,,,,,,",
",,,,,,,,,,@@@@@======::::::&&&&&&X@@@@.X@@@@@X.....,,,,,,,,,,,,,",
",,,,,,,,,,@@@@@======::::::&&&&&oX@@@@..X@@@@@XXX.,,,,,,,,,,,,,,",
",,,,,,,,,,@@@@=======::::::&&&ooo@@@@@@..X@@@@@@.,,,,,,,,,,,,,,,",
",,,,,,,,,@@@@@====+++;;;;;;oooooo@@@@@@@@.X@@@@@X,,,,,,,,,,,,,,,",
",,,,,,,,,@@@@@=++++++;;;;;;oooooo@@@@@@@@@@@@@@@X,,,,,,,,,,,,,,,",
",,,,,,,,,@@@@@+++++++;;;;;;oooooXX@@.@@@@@@@XX@@,,,,,,,,,,,,,,,,",
",,,,,,,,@@@@@@+++++++;;;;;;ooooo.XX.@@@@@@@X@@@@,,,,,,,,,,,,,,,,",
",,,,,,,,@@@@@X+++++++;;;;;;oooo.....@@@@@@X@@@@X,,,,,,,,,,,,,,,,",
",,,,,,,,@@@@X,+,,,,......,,,,,,,,,,.@@@@X,.@@@@,,,,,,,,,,,,,,,,,",
",,,,,,,X@@@@X,,,,,,.....,,,,,,,,,,,.@@@@,,.@@@X,,,,,,,,,,,,,,,,,",
",,,,,,,@@@@X,,,,,,,.....,,,,,,,,,,,.@@@X,,.@@@,,,,,,,,,,,,,,,,,,",
",,,,,,,@@@X,,,,,,,.....,,,,,,,,,,,,.@@@,,,.@@@,,,,,,,,,,,,,,,,,,",
",,,,,,,@@XX,,,,,,,.....,,,,,,,,,,,,.@@@,,,.@@@,,,,,,,,,,,,,,,,,,",
",,,,,,,@@XX,,,,,,,,....,,,,,,,,,,,,.@@@,,,.@@@,,,,,,,,,,,,,,,,,,",
",,,,,,,@@XX,,,,,,,,,...,,,,,,,,,,,,.@@@,,,,.@@,,,,,,,,,,,,,,,,,,",
",,,,,,,@@##,,,,,,,,,..XX,,,,,,,,,,,.@##,,,,.@##,,,,,,,,,,,,,,,,,",
",,,,,,,X@@###,,,,,,,...XXX,,,,,,,,,.@@###,,.@@###,,,,,,,,,,,,,,,",
",,,,,,,.X@@@@@,,,,,,.......,,,,,,,,.X@@@@@,.X@@@@@,,,,,,,,,,,,,,",
",,,,,,,,.@%@%@%,,,,,,..@.@.@,,,,,,,,.@%@%@%,.@%@%@%,,,,,,,,,,,,,",
",,,,,,,,,.%@%@%,,,,,,,.@.@.@,,,,,,,,,.%@%@%,,.%@%@%,,,,,,,,,,,,,",
",,,,,,,,,,,,,,,,,,,,,,,,,,,,,,,,,,,,,,,,,,,,,,,,,,,,,,,,,,,,,,,,",
",,,,,,,,,,,,,,,,,,,,,,,,,,,,,,,,,,,,,,,,,,,,,,,,,,,,,,,,,,,,,,,,",
",,,,,,,,,,,,,,,,,,,,,,,,,,,,,,,,,,,,,,,,,,,,,,,,,,,,,,,,,,,,,,,,",
",,,,,,,,,,,,,,,,,,,,,,,,,,,,,,,,,,,,,,,,,,,,,,,,,,,,,,,,,,,,,,,,",
",,,,,,,,,,,,,,,,,,,,,,,,,,,,,,,,,,,,,,,,,,,,,,,,,,,,,,,,,,,,,,,,",
",,,,,,,,,,,,,,,,,,,,,,,,,,,,,,,,,,,,,,,,,,,,,,,,,,,,,,,,,,,,,,,,",
",,,,,,,,,,,,,,,,,,,,,,,,,,,,,,,,,,,,,,,,,,,,,,,,,,,,,,,,,,,,,,,,",
",,,,,,,,,,,,,,,,,,,,,,,,,,,,,,,,,,,,,,,,,,,,,,,,,,,,,,,,,,,,,,,,",
",,,,,,,,,,,,,,,,,,,,,,,,,,,,,,,,,,,,,,,,,,,,,,,,,,,,,,,,,,,,,,,,"
};
